<?xml version="1.0" encoding="UTF-8" standalone="no"?>
<svg
   xmlns:dc="http://purl.org/dc/elements/1.1/"
   xmlns:cc="http://creativecommons.org/ns#"
   xmlns:rdf="http://www.w3.org/1999/02/22-rdf-syntax-ns#"
   xmlns:svg="http://www.w3.org/2000/svg"
   xmlns="http://www.w3.org/2000/svg"
   xmlns:sodipodi="http://sodipodi.sourceforge.net/DTD/sodipodi-0.dtd"
   xmlns:inkscape="http://www.inkscape.org/namespaces/inkscape"
   aria-hidden="true"
   focusable="false"
   data-prefix="far"
   data-icon="handshake"
   class="svg-inline--fa fa-handshake fa-w-20"
   role="img"
   viewBox="0 0 640 512"
   version="1.1"
   id="svg4"
   sodipodi:docname="icono1_.svg"
   inkscape:version="0.92.2 (5c3e80d, 2017-08-06)">
  <metadata
     id="metadata10">
    <rdf:RDF>
      <cc:Work
         rdf:about="">
        <dc:format>image/svg+xml</dc:format>
        <dc:type
           rdf:resource="http://purl.org/dc/dcmitype/StillImage" />
        <dc:title></dc:title>
      </cc:Work>
    </rdf:RDF>
  </metadata>
  <defs
     id="defs8" />
  <sodipodi:namedview
     pagecolor="#ffffff"
     bordercolor="#666666"
     borderopacity="1"
     objecttolerance="10"
     gridtolerance="10"
     guidetolerance="10"
     inkscape:pageopacity="0"
     inkscape:pageshadow="2"
     inkscape:window-width="867"
     inkscape:window-height="565"
     id="namedview6"
     showgrid="false"
     inkscape:measure-start="65.0847,368.814"
     inkscape:measure-end="114.983,366.644"
     inkscape:zoom="0.61540387"
     inkscape:cx="354.98134"
     inkscape:cy="221.91443"
     inkscape:window-x="68"
     inkscape:window-y="64"
     inkscape:window-maximized="0"
     inkscape:current-layer="svg4" />
  <path
     d="M 528.9525,106.06244 480.03225,49.304085 C 469.20532,36.85329 454.57806,29.867782 439.33387,29.867932 H 206.24324 c -15.2105,0 -29.90714,7.035169 -40.69837,19.436153 L 116.62463,106.06244 H -4.6482707 V 410.9598 H 61.126852 c 18.088162,0 32.68203,-16.93213 32.784809,-37.79917 h 9.352399 l 86.9465,91.09956 c 31.75705,29.9293 75.84695,30.64473 108.52897,4.53113 12.84671,12.87794 26.72113,18.95919 42.23997,18.95919 18.7048,0 36.27909,-8.82377 50.15353,-28.61765 22.71299,10.37389 49.53688,3.10023 65.77514,-20.03238 l 26.92671,-38.51459 c 5.75531,-8.22758 9.35238,-17.64755 11.20232,-27.42526 h 59.50593 c 0.10283,20.86704 14.79941,37.79917 32.78479,37.79917 h 65.77513 V 106.06244 Z M 44.68308,372.80291 c -9.044081,0 -16.443784,-8.58529 -16.443784,-19.07844 0,-10.49313 7.399703,-19.07845 16.443784,-19.07845 9.044081,0 16.443772,8.58532 16.443772,19.07845 0,10.61239 -7.399691,19.07844 -16.443772,19.07844 z m 400.81721,-8.22758 -26.82392,38.39536 c -2.87766,4.05417 -8.01634,4.76961 -11.61342,1.43089 l -24.56292,-23.13261 -30.83207,43.5227 c -6.16643,8.70453 -15.41605,5.72352 -18.49927,2.86177 l -37.8207,-37.5607 -16.03268,22.89413 c -14.28555,20.39009 -40.28726,23.49034 -56.83382,7.86986 L 122.48272,315.92531 H 94.014421 V 163.17853 h 43.062159 l 63.41134,-73.452004 c 2.05549,-0.95392 3.80263,-1.788593 5.85811,-2.74252 h 58.27265 L 224.84526,129.3143 c -30.21544,32.07562 -29.73293,83.66692 -2.29235,118.2466 15.21048,19.31692 60.66779,51.67076 102.08557,7.79035 l 8.42744,-8.94302 111.20109,104.69295 c 3.49429,3.33871 4.00817,9.41997 1.23328,13.47415 z m 108.94006,-48.65002 h -71.11936 c -2.36379,-3.33874 -5.0359,-6.43898 -7.91356,-9.1815 L 369.8589,207.29744 382.70559,193.70403 c 6.68029,-7.1544 7.19415,-19.19766 1.02776,-26.9483 l -11.20236,-13.9511 c -6.16639,-7.75061 -16.54655,-8.22756 -23.22683,-1.19239 l -56.73105,60.33556 c -9.76349,10.37391 -26.41283,11.2086 -35.55967,0 -9.55796,-11.80478 -8.73578,-29.92931 1.23327,-40.42244 l 67.41951,-71.663407 c 7.60525,-8.108341 17.47152,-12.520223 27.7489,-12.520223 l 86.02153,-0.238479 c 2.15825,0 4.21373,0.95392 5.65256,2.742521 l 63.41133,73.452008 h 45.93981 z m 49.33136,56.8776 c -9.04409,0 -16.44379,-8.58529 -16.44379,-19.07844 0,-10.49313 7.3997,-19.07845 16.44379,-19.07845 9.04407,0 16.44379,8.58532 16.44379,19.07845 0,10.61239 -7.39972,19.07844 -16.44379,19.07844 z"
     id="path2"
     style="fill:#ff0000;stroke-width:1.1070118"
     inkscape:connector-curvature="0"
     sodipodi:nodetypes="cccsccccsccccscccccscccsssssccccscccccccccccccccccccccccccccccccccccsssss" />
</svg>
